<?xml version="1.0" encoding="UTF-8"?>
<svg xmlns="http://www.w3.org/2000/svg" xmlns:xlink="http://www.w3.org/1999/xlink" width="25px" height="25px" viewBox="0 0 25 25" version="1.1">
<g id="surface1">
<path style=" stroke:none;fill-rule:nonzero;fill:rgb(0%,0%,0%);fill-opacity:1;" d="M 24.585938 3.558594 L 20.226562 3.558594 C 20 3.558594 19.8125 3.746094 19.8125 3.972656 L 19.8125 13.054688 C 19.8125 14.527344 18.613281 15.726562 17.140625 15.726562 L 4.558594 15.726562 L 0.980469 4.390625 L 16.441406 4.390625 C 16.671875 4.390625 16.859375 4.203125 16.859375 3.972656 C 16.859375 3.746094 16.671875 3.558594 16.441406 3.558594 L 0.414062 3.558594 C 0.28125 3.558594 0.160156 3.621094 0.0820312 3.730469 C 0.00390625 3.835938 -0.0195312 3.972656 0.0195312 4.097656 L 3.855469 16.265625 C 3.910156 16.4375 4.070312 16.554688 4.253906 16.554688 L 17.140625 16.554688 C 19.070312 16.554688 20.644531 14.984375 20.644531 13.054688 L 20.644531 4.390625 L 24.171875 4.390625 L 24.171875 4.515625 C 24.171875 5.621094 23.269531 6.519531 22.164062 6.519531 C 21.933594 6.519531 21.75 6.707031 21.75 6.933594 C 21.75 7.164062 21.933594 7.351562 22.164062 7.351562 C 23.726562 7.351562 25 6.078125 25 4.515625 L 25 3.972656 C 25 3.746094 24.816406 3.558594 24.585938 3.558594 Z M 24.585938 3.558594 "/>
<path style=" stroke:none;fill-rule:nonzero;fill:rgb(0%,0%,0%);fill-opacity:1;" d="M 18.4375 17.03125 C 18.207031 17.03125 18.023438 17.214844 18.023438 17.445312 C 18.023438 17.675781 18.207031 17.859375 18.4375 17.859375 C 19.195312 17.859375 19.8125 18.476562 19.8125 19.234375 C 19.8125 19.992188 19.195312 20.609375 18.4375 20.609375 C 17.679688 20.609375 17.0625 19.992188 17.0625 19.234375 C 17.0625 18.902344 17.183594 18.582031 17.402344 18.328125 C 17.511719 18.207031 17.535156 18.03125 17.46875 17.886719 C 17.402344 17.738281 17.253906 17.640625 17.089844 17.640625 L 5.78125 17.640625 C 5.382812 17.261719 4.847656 17.023438 4.253906 17.023438 C 4.035156 17.023438 3.820312 17.054688 3.613281 17.117188 C 3.394531 17.183594 3.269531 17.414062 3.335938 17.632812 C 3.402344 17.855469 3.632812 17.976562 3.851562 17.910156 C 3.980469 17.871094 4.117188 17.851562 4.253906 17.851562 C 5.015625 17.851562 5.632812 18.472656 5.632812 19.230469 C 5.632812 19.992188 5.015625 20.609375 4.253906 20.609375 C 3.492188 20.609375 2.875 19.992188 2.875 19.230469 C 2.875 19.070312 2.902344 18.910156 2.957031 18.761719 C 3.035156 18.546875 2.921875 18.308594 2.707031 18.230469 C 2.488281 18.152344 2.253906 18.265625 2.175781 18.480469 C 2.089844 18.722656 2.042969 18.972656 2.042969 19.230469 C 2.042969 20.449219 3.035156 21.441406 4.253906 21.441406 C 5.472656 21.441406 6.460938 20.449219 6.460938 19.230469 C 6.460938 18.964844 6.40625 18.710938 6.320312 18.472656 L 16.371094 18.472656 C 16.28125 18.714844 16.234375 18.972656 16.234375 19.234375 C 16.234375 20.453125 17.222656 21.441406 18.4375 21.441406 C 19.65625 21.441406 20.644531 20.453125 20.644531 19.234375 C 20.644531 18.019531 19.65625 17.03125 18.4375 17.03125 Z M 18.4375 17.03125 "/>
</g>
</svg>
